# xmcd
#
# Track frame offsets:
#	150
#	37966
#	77030
#	107260
#	163917
#	183348
#	221853
#	262251
#
# Disc length: 3671 seconds
#
# Revision: 1
# Processed by: cddbd v1.5.2PL0 Copyright (c) Steve Scherf et al.
# Submitted via: audiograbber 1.83.01
#
DISCID=6b0e5508
DTITLE=Grateful Dead - 93-03-31 Nassau Veterans Memorial Coliseum, Uniondale NY
DYEAR=1900
DGENRE=
TTITLE0=Playing In The Band
TTITLE1=Uncle John's Band
TTITLE2=Drums
TTITLE3=Space
TTITLE4=I Need A Miracle
TTITLE5=Standing On The Moon
TTITLE6=Sugar Magnolia
TTITLE7=I Fought The Law
EXTD=
EXTT0=
EXTT1=
EXTT2=
EXTT3=
EXTT4=
EXTT5=
EXTT6=
EXTT7=
PLAYORDER=
